<mxfile host="app.diagrams.net" agent="Mozilla/5.0 (Macintosh; Intel Mac OS X 10_15_7) AppleWebKit/537.36 (KHTML, like Gecko) Chrome/135.0.0.0 Safari/537.36" version="26.2.13">
  <diagram name="Atualização" id="VzDuWqRaXQA7QZk-H-lG">
    <mxGraphModel dx="924" dy="918" grid="1" gridSize="10" guides="1" tooltips="1" connect="1" arrows="1" fold="1" page="1" pageScale="1" pageWidth="827" pageHeight="1169" math="0" shadow="0">
      <root>
        <mxCell id="0" />
        <mxCell id="1" parent="0" />
        <mxCell id="c8jQrME3fnt5rOiOzMss-1" value="" style="image;aspect=fixed;html=1;points=[];align=center;fontSize=12;image=img/lib/azure2/identity/Users.svg;" parent="1" vertex="1">
          <mxGeometry x="940" y="210" width="91.43" height="100" as="geometry" />
        </mxCell>
        <mxCell id="c8jQrME3fnt5rOiOzMss-2" value="Usuário" style="text;html=1;align=center;verticalAlign=middle;resizable=0;points=[];autosize=1;strokeColor=none;fillColor=none;" parent="1" vertex="1">
          <mxGeometry x="955.72" y="320" width="60" height="30" as="geometry" />
        </mxCell>
        <mxCell id="c8jQrME3fnt5rOiOzMss-3" value="MVC" style="shape=folder;fontStyle=1;tabWidth=70;tabHeight=30;tabPosition=left;html=1;boundedLbl=1;labelInHeader=1;container=0;collapsible=0;whiteSpace=wrap;" parent="1" vertex="1">
          <mxGeometry x="1220" y="90" width="800" height="610" as="geometry" />
        </mxCell>
        <mxCell id="34Jqc-MmwKl0o0-0QdGp-11" value="" style="group" parent="1" vertex="1" connectable="0">
          <mxGeometry x="1310" y="560" width="220" height="120" as="geometry" />
        </mxCell>
        <mxCell id="DWd6SexhZ4o0Znv3LY-y-1" value="View" style="shape=umlFrame;whiteSpace=wrap;html=1;pointerEvents=0;shadow=0;" parent="34Jqc-MmwKl0o0-0QdGp-11" vertex="1">
          <mxGeometry width="220" height="120" as="geometry" />
        </mxCell>
        <mxCell id="DWd6SexhZ4o0Znv3LY-y-2" value="index.html" style="html=1;whiteSpace=wrap;" parent="34Jqc-MmwKl0o0-0QdGp-11" vertex="1">
          <mxGeometry x="55" y="40" width="110" height="50" as="geometry" />
        </mxCell>
        <mxCell id="34Jqc-MmwKl0o0-0QdGp-12" value="" style="group" parent="1" vertex="1" connectable="0">
          <mxGeometry x="1300" y="197" width="245" height="250" as="geometry" />
        </mxCell>
        <mxCell id="DWd6SexhZ4o0Znv3LY-y-10" value="Controllers" style="shape=umlFrame;whiteSpace=wrap;html=1;pointerEvents=0;width=70;height=30;" parent="34Jqc-MmwKl0o0-0QdGp-12" vertex="1">
          <mxGeometry width="245" height="250" as="geometry" />
        </mxCell>
        <mxCell id="DWd6SexhZ4o0Znv3LY-y-11" value="userController" style="swimlane;fontStyle=1;align=center;verticalAlign=top;childLayout=stackLayout;horizontal=1;startSize=26;horizontalStack=0;resizeParent=1;resizeParentMax=0;resizeLast=0;collapsible=1;marginBottom=0;whiteSpace=wrap;html=1;" parent="34Jqc-MmwKl0o0-0QdGp-12" vertex="1">
          <mxGeometry x="42.5" y="43" width="160" height="190" as="geometry" />
        </mxCell>
        <mxCell id="DWd6SexhZ4o0Znv3LY-y-12" value="- user: user" style="text;strokeColor=none;fillColor=none;align=left;verticalAlign=top;spacingLeft=4;spacingRight=4;overflow=hidden;rotatable=0;points=[[0,0.5],[1,0.5]];portConstraint=eastwest;whiteSpace=wrap;html=1;" parent="DWd6SexhZ4o0Znv3LY-y-11" vertex="1">
          <mxGeometry y="26" width="160" height="26" as="geometry" />
        </mxCell>
        <mxCell id="_AMsJBMfGugDP1ZQENXv-7" value="- userService: userService" style="text;strokeColor=none;fillColor=none;align=left;verticalAlign=top;spacingLeft=4;spacingRight=4;overflow=hidden;rotatable=0;points=[[0,0.5],[1,0.5]];portConstraint=eastwest;whiteSpace=wrap;html=1;" parent="DWd6SexhZ4o0Znv3LY-y-11" vertex="1">
          <mxGeometry y="52" width="160" height="26" as="geometry" />
        </mxCell>
        <mxCell id="DWd6SexhZ4o0Znv3LY-y-13" value="" style="line;strokeWidth=1;fillColor=none;align=left;verticalAlign=middle;spacingTop=-1;spacingLeft=3;spacingRight=3;rotatable=0;labelPosition=right;points=[];portConstraint=eastwest;strokeColor=inherit;" parent="DWd6SexhZ4o0Znv3LY-y-11" vertex="1">
          <mxGeometry y="78" width="160" height="8" as="geometry" />
        </mxCell>
        <mxCell id="DWd6SexhZ4o0Znv3LY-y-14" value="+ create(json)" style="text;strokeColor=none;fillColor=none;align=left;verticalAlign=top;spacingLeft=4;spacingRight=4;overflow=hidden;rotatable=0;points=[[0,0.5],[1,0.5]];portConstraint=eastwest;whiteSpace=wrap;html=1;" parent="DWd6SexhZ4o0Znv3LY-y-11" vertex="1">
          <mxGeometry y="86" width="160" height="26" as="geometry" />
        </mxCell>
        <mxCell id="DWd6SexhZ4o0Znv3LY-y-15" value="+ list(json)" style="text;strokeColor=none;fillColor=none;align=left;verticalAlign=top;spacingLeft=4;spacingRight=4;overflow=hidden;rotatable=0;points=[[0,0.5],[1,0.5]];portConstraint=eastwest;whiteSpace=wrap;html=1;" parent="DWd6SexhZ4o0Znv3LY-y-11" vertex="1">
          <mxGeometry y="112" width="160" height="26" as="geometry" />
        </mxCell>
        <mxCell id="DWd6SexhZ4o0Znv3LY-y-16" value="+ update(json)" style="text;strokeColor=none;fillColor=none;align=left;verticalAlign=top;spacingLeft=4;spacingRight=4;overflow=hidden;rotatable=0;points=[[0,0.5],[1,0.5]];portConstraint=eastwest;whiteSpace=wrap;html=1;" parent="DWd6SexhZ4o0Znv3LY-y-11" vertex="1">
          <mxGeometry y="138" width="160" height="26" as="geometry" />
        </mxCell>
        <mxCell id="DWd6SexhZ4o0Znv3LY-y-17" value="+ delete(json)" style="text;strokeColor=none;fillColor=none;align=left;verticalAlign=top;spacingLeft=4;spacingRight=4;overflow=hidden;rotatable=0;points=[[0,0.5],[1,0.5]];portConstraint=eastwest;whiteSpace=wrap;html=1;" parent="DWd6SexhZ4o0Znv3LY-y-11" vertex="1">
          <mxGeometry y="164" width="160" height="26" as="geometry" />
        </mxCell>
        <mxCell id="DsdAJ7uAf9FdxlnewxL9-2" value="" style="html=1;strokeColor=none;resizeWidth=1;resizeHeight=1;fillColor=none;part=1;connectable=0;allowArrows=0;deletable=0;whiteSpace=wrap;" parent="1" vertex="1">
          <mxGeometry x="2237.5" y="655" width="282.5" height="203" as="geometry">
            <mxPoint y="30" as="offset" />
          </mxGeometry>
        </mxCell>
        <mxCell id="nbx4ccASDViwXFDf85zo-10" value="" style="group" parent="1" vertex="1" connectable="0">
          <mxGeometry x="1690" y="350" width="245" height="253" as="geometry" />
        </mxCell>
        <mxCell id="DWd6SexhZ4o0Znv3LY-y-3" value="Models" style="shape=umlFrame;whiteSpace=wrap;html=1;pointerEvents=0;width=60;height=30;" parent="nbx4ccASDViwXFDf85zo-10" vertex="1">
          <mxGeometry width="245" height="253" as="geometry" />
        </mxCell>
        <mxCell id="DWd6SexhZ4o0Znv3LY-y-4" value="User" style="swimlane;fontStyle=1;align=center;verticalAlign=top;childLayout=stackLayout;horizontal=1;startSize=26;horizontalStack=0;resizeParent=1;resizeParentMax=0;resizeLast=0;collapsible=1;marginBottom=0;whiteSpace=wrap;html=1;" parent="nbx4ccASDViwXFDf85zo-10" vertex="1">
          <mxGeometry x="42.5" y="47.56399999999999" width="160" height="157.56" as="geometry">
            <mxRectangle x="760" y="300" width="70" height="30" as="alternateBounds" />
          </mxGeometry>
        </mxCell>
        <mxCell id="DWd6SexhZ4o0Znv3LY-y-5" value="- id: number" style="text;strokeColor=none;fillColor=none;align=left;verticalAlign=top;spacingLeft=4;spacingRight=4;overflow=hidden;rotatable=0;points=[[0,0.5],[1,0.5]];portConstraint=eastwest;whiteSpace=wrap;html=1;" parent="DWd6SexhZ4o0Znv3LY-y-4" vertex="1">
          <mxGeometry y="26" width="160" height="26.312" as="geometry" />
        </mxCell>
        <mxCell id="DWd6SexhZ4o0Znv3LY-y-6" value="- name: string" style="text;strokeColor=none;fillColor=none;align=left;verticalAlign=top;spacingLeft=4;spacingRight=4;overflow=hidden;rotatable=0;points=[[0,0.5],[1,0.5]];portConstraint=eastwest;whiteSpace=wrap;html=1;" parent="DWd6SexhZ4o0Znv3LY-y-4" vertex="1">
          <mxGeometry y="52.312" width="160" height="26.312" as="geometry" />
        </mxCell>
        <mxCell id="DWd6SexhZ4o0Znv3LY-y-7" value="- birth: Date" style="text;strokeColor=none;fillColor=none;align=left;verticalAlign=top;spacingLeft=4;spacingRight=4;overflow=hidden;rotatable=0;points=[[0,0.5],[1,0.5]];portConstraint=eastwest;whiteSpace=wrap;html=1;" parent="DWd6SexhZ4o0Znv3LY-y-4" vertex="1">
          <mxGeometry y="78.624" width="160" height="26.312" as="geometry" />
        </mxCell>
        <mxCell id="DWd6SexhZ4o0Znv3LY-y-8" value="- email: string" style="text;strokeColor=none;fillColor=none;align=left;verticalAlign=top;spacingLeft=4;spacingRight=4;overflow=hidden;rotatable=0;points=[[0,0.5],[1,0.5]];portConstraint=eastwest;whiteSpace=wrap;html=1;" parent="DWd6SexhZ4o0Znv3LY-y-4" vertex="1">
          <mxGeometry y="104.93599999999999" width="160" height="26.312" as="geometry" />
        </mxCell>
        <mxCell id="DWd6SexhZ4o0Znv3LY-y-9" value="- password: string" style="text;strokeColor=none;fillColor=none;align=left;verticalAlign=top;spacingLeft=4;spacingRight=4;overflow=hidden;rotatable=0;points=[[0,0.5],[1,0.5]];portConstraint=eastwest;whiteSpace=wrap;html=1;" parent="DWd6SexhZ4o0Znv3LY-y-4" vertex="1">
          <mxGeometry y="131.248" width="160" height="26.312" as="geometry" />
        </mxCell>
        <mxCell id="0CC2OAxYhJhXeJPqgxm6-1" value="" style="html=1;rounded=0;" parent="1" vertex="1">
          <mxGeometry x="1200" y="210" width="30" height="30" as="geometry" />
        </mxCell>
        <mxCell id="0CC2OAxYhJhXeJPqgxm6-4" value="" style="html=1;rounded=0;" parent="1" vertex="1">
          <mxGeometry x="1200" y="280" width="30" height="30" as="geometry" />
        </mxCell>
        <mxCell id="0CC2OAxYhJhXeJPqgxm6-5" value="" style="rounded=0;orthogonalLoop=1;jettySize=auto;html=1;endArrow=halfCircle;endFill=0;endSize=6;strokeWidth=1;sketch=0;" parent="1" source="0CC2OAxYhJhXeJPqgxm6-1" target="0CC2OAxYhJhXeJPqgxm6-7" edge="1">
          <mxGeometry relative="1" as="geometry">
            <mxPoint x="1280" y="325" as="sourcePoint" />
          </mxGeometry>
        </mxCell>
        <mxCell id="0CC2OAxYhJhXeJPqgxm6-6" value="" style="rounded=0;orthogonalLoop=1;jettySize=auto;html=1;endArrow=oval;endFill=0;sketch=0;sourcePerimeterSpacing=0;targetPerimeterSpacing=0;endSize=10;" parent="1" target="0CC2OAxYhJhXeJPqgxm6-7" edge="1">
          <mxGeometry relative="1" as="geometry">
            <mxPoint x="1040" y="225" as="sourcePoint" />
          </mxGeometry>
        </mxCell>
        <mxCell id="0CC2OAxYhJhXeJPqgxm6-7" value="" style="ellipse;whiteSpace=wrap;html=1;align=center;aspect=fixed;fillColor=none;strokeColor=none;resizable=0;perimeter=centerPerimeter;rotatable=0;allowArrows=0;points=[];outlineConnect=1;" parent="1" vertex="1">
          <mxGeometry x="1110" y="220" width="10" height="10" as="geometry" />
        </mxCell>
        <mxCell id="EeE9-qU7ZfNwyQPFn_cD-1" value="" style="rounded=0;orthogonalLoop=1;jettySize=auto;html=1;endArrow=halfCircle;endFill=0;endSize=6;strokeWidth=1;sketch=0;" parent="1" target="EeE9-qU7ZfNwyQPFn_cD-3" edge="1">
          <mxGeometry relative="1" as="geometry">
            <mxPoint x="1040" y="295" as="sourcePoint" />
          </mxGeometry>
        </mxCell>
        <mxCell id="EeE9-qU7ZfNwyQPFn_cD-2" value="" style="rounded=0;orthogonalLoop=1;jettySize=auto;html=1;endArrow=oval;endFill=0;sketch=0;sourcePerimeterSpacing=0;targetPerimeterSpacing=0;endSize=10;" parent="1" source="0CC2OAxYhJhXeJPqgxm6-4" target="EeE9-qU7ZfNwyQPFn_cD-3" edge="1">
          <mxGeometry relative="1" as="geometry">
            <mxPoint x="1170" y="275" as="sourcePoint" />
          </mxGeometry>
        </mxCell>
        <mxCell id="EeE9-qU7ZfNwyQPFn_cD-3" value="" style="ellipse;whiteSpace=wrap;html=1;align=center;aspect=fixed;fillColor=none;strokeColor=none;resizable=0;perimeter=centerPerimeter;rotatable=0;allowArrows=0;points=[];outlineConnect=1;" parent="1" vertex="1">
          <mxGeometry x="1110" y="290" width="10" height="10" as="geometry" />
        </mxCell>
        <mxCell id="NHypde6mg1Lnjsp9_-ev-1" value="HTTP Request" style="text;html=1;align=center;verticalAlign=middle;resizable=0;points=[];autosize=1;strokeColor=none;fillColor=none;" parent="1" vertex="1">
          <mxGeometry x="1065" y="180" width="100" height="30" as="geometry" />
        </mxCell>
        <mxCell id="mA3DSsyI6r67D0hG2e7t-1" value="HTTP Response" style="text;html=1;align=center;verticalAlign=middle;resizable=0;points=[];autosize=1;strokeColor=none;fillColor=none;" parent="1" vertex="1">
          <mxGeometry x="1060" y="307" width="110" height="30" as="geometry" />
        </mxCell>
        <mxCell id="wwPSnV2CTyXLGhhKyobP-3" value="" style="endArrow=none;html=1;rounded=0;entryX=-0.003;entryY=0.114;entryDx=0;entryDy=0;entryPerimeter=0;" parent="1" source="0CC2OAxYhJhXeJPqgxm6-1" target="DWd6SexhZ4o0Znv3LY-y-10" edge="1">
          <mxGeometry width="50" height="50" relative="1" as="geometry">
            <mxPoint x="1320" y="310" as="sourcePoint" />
            <mxPoint x="1370" y="260" as="targetPoint" />
          </mxGeometry>
        </mxCell>
        <mxCell id="wwPSnV2CTyXLGhhKyobP-4" value="" style="endArrow=none;html=1;rounded=0;" parent="1" source="0CC2OAxYhJhXeJPqgxm6-4" edge="1">
          <mxGeometry width="50" height="50" relative="1" as="geometry">
            <mxPoint x="1320" y="310" as="sourcePoint" />
            <mxPoint x="1300" y="296" as="targetPoint" />
          </mxGeometry>
        </mxCell>
        <mxCell id="AVn4gOU2MKbjJYuqz2pO-1" value="" style="rounded=0;orthogonalLoop=1;jettySize=auto;html=1;endArrow=halfCircle;endFill=0;endSize=6;strokeWidth=1;sketch=0;" parent="1" target="AVn4gOU2MKbjJYuqz2pO-3" edge="1">
          <mxGeometry relative="1" as="geometry">
            <mxPoint x="1690" y="376" as="sourcePoint" />
          </mxGeometry>
        </mxCell>
        <mxCell id="AVn4gOU2MKbjJYuqz2pO-2" value="" style="rounded=0;orthogonalLoop=1;jettySize=auto;html=1;endArrow=oval;endFill=0;sketch=0;sourcePerimeterSpacing=0;targetPerimeterSpacing=0;endSize=10;exitX=1.002;exitY=0.709;exitDx=0;exitDy=0;exitPerimeter=0;" parent="1" source="DWd6SexhZ4o0Znv3LY-y-10" target="AVn4gOU2MKbjJYuqz2pO-3" edge="1">
          <mxGeometry relative="1" as="geometry">
            <mxPoint x="1650" y="335" as="sourcePoint" />
          </mxGeometry>
        </mxCell>
        <mxCell id="AVn4gOU2MKbjJYuqz2pO-3" value="" style="ellipse;whiteSpace=wrap;html=1;align=center;aspect=fixed;fillColor=none;strokeColor=none;resizable=0;perimeter=centerPerimeter;rotatable=0;allowArrows=0;points=[];outlineConnect=1;" parent="1" vertex="1">
          <mxGeometry x="1610" y="370" width="10" height="10" as="geometry" />
        </mxCell>
        <mxCell id="1sxHXUsFtJAXMX4OD3j4-1" value="" style="rounded=0;orthogonalLoop=1;jettySize=auto;html=1;endArrow=halfCircle;endFill=0;endSize=6;strokeWidth=1;sketch=0;exitX=1;exitY=0.909;exitDx=0;exitDy=0;exitPerimeter=0;" parent="1" source="DWd6SexhZ4o0Znv3LY-y-10" target="1sxHXUsFtJAXMX4OD3j4-3" edge="1">
          <mxGeometry relative="1" as="geometry">
            <mxPoint x="1550" y="424" as="sourcePoint" />
          </mxGeometry>
        </mxCell>
        <mxCell id="1sxHXUsFtJAXMX4OD3j4-2" value="" style="rounded=0;orthogonalLoop=1;jettySize=auto;html=1;endArrow=oval;endFill=0;sketch=0;sourcePerimeterSpacing=0;targetPerimeterSpacing=0;endSize=10;" parent="1" target="1sxHXUsFtJAXMX4OD3j4-3" edge="1">
          <mxGeometry relative="1" as="geometry">
            <mxPoint x="1690" y="426" as="sourcePoint" />
          </mxGeometry>
        </mxCell>
        <mxCell id="1sxHXUsFtJAXMX4OD3j4-3" value="" style="ellipse;whiteSpace=wrap;html=1;align=center;aspect=fixed;fillColor=none;strokeColor=none;resizable=0;perimeter=centerPerimeter;rotatable=0;allowArrows=0;points=[];outlineConnect=1;" parent="1" vertex="1">
          <mxGeometry x="1610" y="420" width="10" height="10" as="geometry" />
        </mxCell>
        <mxCell id="j_OXnM-JxhQQ7ygkO0Mj-1" value="Data object&lt;div&gt;Request&lt;/div&gt;" style="text;html=1;align=center;verticalAlign=middle;resizable=0;points=[];autosize=1;strokeColor=none;fillColor=none;" parent="1" vertex="1">
          <mxGeometry x="1575" y="320" width="80" height="40" as="geometry" />
        </mxCell>
        <mxCell id="uSoIaVkswLJ2dp4BAqMq-1" value="Data object&lt;div&gt;Response&lt;/div&gt;" style="text;html=1;align=center;verticalAlign=middle;resizable=0;points=[];autosize=1;strokeColor=none;fillColor=none;" parent="1" vertex="1">
          <mxGeometry x="1575" y="440" width="80" height="40" as="geometry" />
        </mxCell>
        <mxCell id="Z_NDM8bF3_LGKxgrnC12-1" value="" style="rounded=0;orthogonalLoop=1;jettySize=auto;html=1;endArrow=halfCircle;endFill=0;endSize=6;strokeWidth=1;sketch=0;exitX=0.25;exitY=-0.004;exitDx=0;exitDy=0;exitPerimeter=0;" parent="1" source="DWd6SexhZ4o0Znv3LY-y-1" target="Z_NDM8bF3_LGKxgrnC12-3" edge="1">
          <mxGeometry relative="1" as="geometry">
            <mxPoint x="1620" y="405" as="sourcePoint" />
          </mxGeometry>
        </mxCell>
        <mxCell id="Z_NDM8bF3_LGKxgrnC12-2" value="" style="rounded=0;orthogonalLoop=1;jettySize=auto;html=1;endArrow=oval;endFill=0;sketch=0;sourcePerimeterSpacing=0;targetPerimeterSpacing=0;endSize=10;exitX=0.266;exitY=1.002;exitDx=0;exitDy=0;exitPerimeter=0;" parent="1" source="DWd6SexhZ4o0Znv3LY-y-10" target="Z_NDM8bF3_LGKxgrnC12-3" edge="1">
          <mxGeometry relative="1" as="geometry">
            <mxPoint x="1580" y="405" as="sourcePoint" />
          </mxGeometry>
        </mxCell>
        <mxCell id="Z_NDM8bF3_LGKxgrnC12-3" value="" style="ellipse;whiteSpace=wrap;html=1;align=center;aspect=fixed;fillColor=none;strokeColor=none;resizable=0;perimeter=centerPerimeter;rotatable=0;allowArrows=0;points=[];outlineConnect=1;" parent="1" vertex="1">
          <mxGeometry x="1360" y="500" width="10" height="10" as="geometry" />
        </mxCell>
        <mxCell id="H2l8OedYrXygQlphIoes-1" value="" style="rounded=0;orthogonalLoop=1;jettySize=auto;html=1;endArrow=halfCircle;endFill=0;endSize=6;strokeWidth=1;sketch=0;exitX=0.632;exitY=1;exitDx=0;exitDy=0;exitPerimeter=0;" parent="1" source="DWd6SexhZ4o0Znv3LY-y-10" target="H2l8OedYrXygQlphIoes-3" edge="1">
          <mxGeometry relative="1" as="geometry">
            <mxPoint x="1450" y="450" as="sourcePoint" />
          </mxGeometry>
        </mxCell>
        <mxCell id="H2l8OedYrXygQlphIoes-2" value="" style="rounded=0;orthogonalLoop=1;jettySize=auto;html=1;endArrow=oval;endFill=0;sketch=0;sourcePerimeterSpacing=0;targetPerimeterSpacing=0;endSize=10;exitX=0.66;exitY=-0.006;exitDx=0;exitDy=0;exitPerimeter=0;" parent="1" source="DWd6SexhZ4o0Znv3LY-y-1" target="H2l8OedYrXygQlphIoes-3" edge="1">
          <mxGeometry relative="1" as="geometry">
            <mxPoint x="1440" y="495" as="sourcePoint" />
          </mxGeometry>
        </mxCell>
        <mxCell id="H2l8OedYrXygQlphIoes-3" value="" style="ellipse;whiteSpace=wrap;html=1;align=center;aspect=fixed;fillColor=none;strokeColor=none;resizable=0;perimeter=centerPerimeter;rotatable=0;allowArrows=0;points=[];outlineConnect=1;" parent="1" vertex="1">
          <mxGeometry x="1450" y="500" width="10" height="10" as="geometry" />
        </mxCell>
        <mxCell id="GuJXoGsQFjhVKwPXx_Sg-1" value="&lt;span style=&quot;background-color: transparent; color: light-dark(rgb(0, 0, 0), rgb(255, 255, 255));&quot;&gt;Events&lt;/span&gt;&lt;div&gt;(GET / POST)&lt;/div&gt;" style="text;html=1;align=center;verticalAlign=middle;resizable=0;points=[];autosize=1;strokeColor=none;fillColor=none;" parent="1" vertex="1">
          <mxGeometry x="1260" y="485" width="100" height="40" as="geometry" />
        </mxCell>
        <mxCell id="_AMsJBMfGugDP1ZQENXv-1" value="Render Data" style="text;html=1;align=center;verticalAlign=middle;resizable=0;points=[];autosize=1;strokeColor=none;fillColor=none;" parent="1" vertex="1">
          <mxGeometry x="1460" y="490" width="90" height="30" as="geometry" />
        </mxCell>
        <mxCell id="_AMsJBMfGugDP1ZQENXv-2" value="" style="html=1;rounded=0;" parent="1" vertex="1">
          <mxGeometry x="2010" y="210" width="30" height="30" as="geometry" />
        </mxCell>
        <mxCell id="_AMsJBMfGugDP1ZQENXv-3" value="" style="html=1;rounded=0;" parent="1" vertex="1">
          <mxGeometry x="2010" y="280" width="30" height="30" as="geometry" />
        </mxCell>
        <mxCell id="_AMsJBMfGugDP1ZQENXv-4" value="" style="endArrow=none;html=1;rounded=0;exitX=1.003;exitY=0.111;exitDx=0;exitDy=0;exitPerimeter=0;" parent="1" source="DWd6SexhZ4o0Znv3LY-y-10" target="_AMsJBMfGugDP1ZQENXv-2" edge="1">
          <mxGeometry width="50" height="50" relative="1" as="geometry">
            <mxPoint x="1760" y="370" as="sourcePoint" />
            <mxPoint x="1810" y="320" as="targetPoint" />
          </mxGeometry>
        </mxCell>
        <mxCell id="_AMsJBMfGugDP1ZQENXv-5" value="" style="endArrow=none;html=1;rounded=0;exitX=1.003;exitY=0.111;exitDx=0;exitDy=0;exitPerimeter=0;" parent="1" edge="1">
          <mxGeometry width="50" height="50" relative="1" as="geometry">
            <mxPoint x="1545" y="294.52" as="sourcePoint" />
            <mxPoint x="2009" y="294.52" as="targetPoint" />
          </mxGeometry>
        </mxCell>
        <mxCell id="z1_fMm11V1FeOPK-AZ0X-1" value="" style="rounded=0;orthogonalLoop=1;jettySize=auto;html=1;endArrow=halfCircle;endFill=0;endSize=6;strokeWidth=1;sketch=0;" parent="1" source="z1_fMm11V1FeOPK-AZ0X-4" target="z1_fMm11V1FeOPK-AZ0X-3" edge="1">
          <mxGeometry relative="1" as="geometry">
            <mxPoint x="1970" y="445" as="sourcePoint" />
          </mxGeometry>
        </mxCell>
        <mxCell id="z1_fMm11V1FeOPK-AZ0X-2" value="" style="rounded=0;orthogonalLoop=1;jettySize=auto;html=1;endArrow=oval;endFill=0;sketch=0;sourcePerimeterSpacing=0;targetPerimeterSpacing=0;endSize=10;" parent="1" source="_AMsJBMfGugDP1ZQENXv-2" target="z1_fMm11V1FeOPK-AZ0X-3" edge="1">
          <mxGeometry relative="1" as="geometry">
            <mxPoint x="1930" y="445" as="sourcePoint" />
          </mxGeometry>
        </mxCell>
        <mxCell id="z1_fMm11V1FeOPK-AZ0X-3" value="" style="ellipse;whiteSpace=wrap;html=1;align=center;aspect=fixed;fillColor=none;strokeColor=none;resizable=0;perimeter=centerPerimeter;rotatable=0;allowArrows=0;points=[];outlineConnect=1;" parent="1" vertex="1">
          <mxGeometry x="2130" y="220" width="10" height="10" as="geometry" />
        </mxCell>
        <mxCell id="34Jqc-MmwKl0o0-0QdGp-1" value="BO" style="shape=folder;fontStyle=1;tabWidth=80;tabHeight=30;tabPosition=left;html=1;boundedLbl=1;labelInHeader=1;container=0;collapsible=0;whiteSpace=wrap;" parent="1" vertex="1">
          <mxGeometry x="2230" y="90" width="330" height="370" as="geometry" />
        </mxCell>
        <mxCell id="34Jqc-MmwKl0o0-0QdGp-2" value="Services" style="shape=umlFrame;whiteSpace=wrap;html=1;pointerEvents=0;width=70;height=30;" parent="1" vertex="1">
          <mxGeometry x="2300" y="140" width="245" height="260" as="geometry" />
        </mxCell>
        <mxCell id="34Jqc-MmwKl0o0-0QdGp-3" value="userService" style="swimlane;fontStyle=1;align=center;verticalAlign=top;childLayout=stackLayout;horizontal=1;startSize=26;horizontalStack=0;resizeParent=1;resizeParentMax=0;resizeLast=0;collapsible=1;marginBottom=0;whiteSpace=wrap;html=1;" parent="1" vertex="1">
          <mxGeometry x="2342.5" y="190" width="160" height="190" as="geometry" />
        </mxCell>
        <mxCell id="34Jqc-MmwKl0o0-0QdGp-4" value="- user: user" style="text;strokeColor=none;fillColor=none;align=left;verticalAlign=top;spacingLeft=4;spacingRight=4;overflow=hidden;rotatable=0;points=[[0,0.5],[1,0.5]];portConstraint=eastwest;whiteSpace=wrap;html=1;" parent="34Jqc-MmwKl0o0-0QdGp-3" vertex="1">
          <mxGeometry y="26" width="160" height="26" as="geometry" />
        </mxCell>
        <mxCell id="34Jqc-MmwKl0o0-0QdGp-5" value="- emailExist" style="text;strokeColor=none;fillColor=none;align=left;verticalAlign=top;spacingLeft=4;spacingRight=4;overflow=hidden;rotatable=0;points=[[0,0.5],[1,0.5]];portConstraint=eastwest;whiteSpace=wrap;html=1;" parent="34Jqc-MmwKl0o0-0QdGp-3" vertex="1">
          <mxGeometry y="52" width="160" height="26" as="geometry" />
        </mxCell>
        <mxCell id="34Jqc-MmwKl0o0-0QdGp-6" value="" style="line;strokeWidth=1;fillColor=none;align=left;verticalAlign=middle;spacingTop=-1;spacingLeft=3;spacingRight=3;rotatable=0;labelPosition=right;points=[];portConstraint=eastwest;strokeColor=inherit;" parent="34Jqc-MmwKl0o0-0QdGp-3" vertex="1">
          <mxGeometry y="78" width="160" height="8" as="geometry" />
        </mxCell>
        <mxCell id="34Jqc-MmwKl0o0-0QdGp-7" value="+ create" style="text;strokeColor=none;fillColor=none;align=left;verticalAlign=top;spacingLeft=4;spacingRight=4;overflow=hidden;rotatable=0;points=[[0,0.5],[1,0.5]];portConstraint=eastwest;whiteSpace=wrap;html=1;" parent="34Jqc-MmwKl0o0-0QdGp-3" vertex="1">
          <mxGeometry y="86" width="160" height="26" as="geometry" />
        </mxCell>
        <mxCell id="34Jqc-MmwKl0o0-0QdGp-8" value="+ list" style="text;strokeColor=none;fillColor=none;align=left;verticalAlign=top;spacingLeft=4;spacingRight=4;overflow=hidden;rotatable=0;points=[[0,0.5],[1,0.5]];portConstraint=eastwest;whiteSpace=wrap;html=1;" parent="34Jqc-MmwKl0o0-0QdGp-3" vertex="1">
          <mxGeometry y="112" width="160" height="26" as="geometry" />
        </mxCell>
        <mxCell id="34Jqc-MmwKl0o0-0QdGp-9" value="+ update" style="text;strokeColor=none;fillColor=none;align=left;verticalAlign=top;spacingLeft=4;spacingRight=4;overflow=hidden;rotatable=0;points=[[0,0.5],[1,0.5]];portConstraint=eastwest;whiteSpace=wrap;html=1;" parent="34Jqc-MmwKl0o0-0QdGp-3" vertex="1">
          <mxGeometry y="138" width="160" height="26" as="geometry" />
        </mxCell>
        <mxCell id="34Jqc-MmwKl0o0-0QdGp-10" value="+ delete" style="text;strokeColor=none;fillColor=none;align=left;verticalAlign=top;spacingLeft=4;spacingRight=4;overflow=hidden;rotatable=0;points=[[0,0.5],[1,0.5]];portConstraint=eastwest;whiteSpace=wrap;html=1;" parent="34Jqc-MmwKl0o0-0QdGp-3" vertex="1">
          <mxGeometry y="164" width="160" height="26" as="geometry" />
        </mxCell>
        <mxCell id="z1_fMm11V1FeOPK-AZ0X-4" value="" style="html=1;rounded=0;" parent="1" vertex="1">
          <mxGeometry x="2220" y="210" width="30" height="30" as="geometry" />
        </mxCell>
        <mxCell id="z1_fMm11V1FeOPK-AZ0X-5" value="" style="html=1;rounded=0;" parent="1" vertex="1">
          <mxGeometry x="2342.5" y="445" width="30" height="30" as="geometry" />
        </mxCell>
        <mxCell id="z1_fMm11V1FeOPK-AZ0X-6" value="" style="html=1;rounded=0;" parent="1" vertex="1">
          <mxGeometry x="2460" y="445" width="30" height="30" as="geometry" />
        </mxCell>
        <mxCell id="DsdAJ7uAf9FdxlnewxL9-1" value="DAO" style="shape=folder;fontStyle=1;tabWidth=60;tabHeight=30;tabPosition=left;html=1;boundedLbl=1;labelInHeader=1;container=0;collapsible=0;whiteSpace=wrap;" parent="1" vertex="1">
          <mxGeometry x="2230" y="580" width="330" height="375" as="geometry" />
        </mxCell>
        <mxCell id="DsdAJ7uAf9FdxlnewxL9-3" value="Repositories" style="shape=umlFrame;whiteSpace=wrap;html=1;pointerEvents=0;width=83;height=30;" parent="1" vertex="1">
          <mxGeometry x="2278.75" y="675" width="232.5" height="260" as="geometry" />
        </mxCell>
        <mxCell id="DsdAJ7uAf9FdxlnewxL9-4" value="" style="image;aspect=fixed;html=1;points=[];align=center;fontSize=12;image=img/lib/azure2/databases/SQL_Database.svg;" parent="1" vertex="1">
          <mxGeometry x="2372.5" y="835" width="37.5" height="50" as="geometry" />
        </mxCell>
        <mxCell id="DsdAJ7uAf9FdxlnewxL9-5" value="SQLite&lt;div&gt;(Tabela Users)&lt;/div&gt;" style="text;html=1;align=center;verticalAlign=middle;resizable=0;points=[];autosize=1;strokeColor=none;fillColor=none;" parent="1" vertex="1">
          <mxGeometry x="2341.25" y="885" width="100" height="40" as="geometry" />
        </mxCell>
        <mxCell id="nbx4ccASDViwXFDf85zo-1" value="userRepository" style="swimlane;fontStyle=1;align=center;verticalAlign=top;childLayout=stackLayout;horizontal=1;startSize=26;horizontalStack=0;resizeParent=1;resizeParentMax=0;resizeLast=0;collapsible=1;marginBottom=0;whiteSpace=wrap;html=1;" parent="1" vertex="1">
          <mxGeometry x="2315" y="725" width="160" height="78" as="geometry" />
        </mxCell>
        <mxCell id="nbx4ccASDViwXFDf85zo-5" value="+ findByMail" style="text;strokeColor=none;fillColor=none;align=left;verticalAlign=top;spacingLeft=4;spacingRight=4;overflow=hidden;rotatable=0;points=[[0,0.5],[1,0.5]];portConstraint=eastwest;whiteSpace=wrap;html=1;" parent="nbx4ccASDViwXFDf85zo-1" vertex="1">
          <mxGeometry y="26" width="160" height="26" as="geometry" />
        </mxCell>
        <mxCell id="nbx4ccASDViwXFDf85zo-6" value="+ findById" style="text;strokeColor=none;fillColor=none;align=left;verticalAlign=top;spacingLeft=4;spacingRight=4;overflow=hidden;rotatable=0;points=[[0,0.5],[1,0.5]];portConstraint=eastwest;whiteSpace=wrap;html=1;" parent="nbx4ccASDViwXFDf85zo-1" vertex="1">
          <mxGeometry y="52" width="160" height="26" as="geometry" />
        </mxCell>
        <mxCell id="z1_fMm11V1FeOPK-AZ0X-8" value="" style="html=1;rounded=0;" parent="1" vertex="1">
          <mxGeometry x="2342.5" y="595" width="30" height="30" as="geometry" />
        </mxCell>
        <mxCell id="z1_fMm11V1FeOPK-AZ0X-9" value="" style="html=1;rounded=0;" parent="1" vertex="1">
          <mxGeometry x="2460" y="595" width="30" height="30" as="geometry" />
        </mxCell>
        <mxCell id="z1_fMm11V1FeOPK-AZ0X-10" value="" style="rounded=0;orthogonalLoop=1;jettySize=auto;html=1;endArrow=halfCircle;endFill=0;endSize=6;strokeWidth=1;sketch=0;" parent="1" source="_AMsJBMfGugDP1ZQENXv-3" target="z1_fMm11V1FeOPK-AZ0X-12" edge="1">
          <mxGeometry relative="1" as="geometry">
            <mxPoint x="1780" y="425" as="sourcePoint" />
          </mxGeometry>
        </mxCell>
        <mxCell id="z1_fMm11V1FeOPK-AZ0X-11" value="" style="rounded=0;orthogonalLoop=1;jettySize=auto;html=1;endArrow=oval;endFill=0;sketch=0;sourcePerimeterSpacing=0;targetPerimeterSpacing=0;endSize=10;" parent="1" source="z1_fMm11V1FeOPK-AZ0X-13" target="z1_fMm11V1FeOPK-AZ0X-12" edge="1">
          <mxGeometry relative="1" as="geometry">
            <mxPoint x="2250" y="310" as="sourcePoint" />
          </mxGeometry>
        </mxCell>
        <mxCell id="z1_fMm11V1FeOPK-AZ0X-12" value="" style="ellipse;whiteSpace=wrap;html=1;align=center;aspect=fixed;fillColor=none;strokeColor=none;resizable=0;perimeter=centerPerimeter;rotatable=0;allowArrows=0;points=[];outlineConnect=1;" parent="1" vertex="1">
          <mxGeometry x="2130" y="290" width="10" height="10" as="geometry" />
        </mxCell>
        <mxCell id="z1_fMm11V1FeOPK-AZ0X-13" value="" style="html=1;rounded=0;" parent="1" vertex="1">
          <mxGeometry x="2220" y="280" width="30" height="30" as="geometry" />
        </mxCell>
        <mxCell id="z1_fMm11V1FeOPK-AZ0X-14" value="" style="rounded=0;orthogonalLoop=1;jettySize=auto;html=1;endArrow=halfCircle;endFill=0;endSize=6;strokeWidth=1;sketch=0;" parent="1" source="z1_fMm11V1FeOPK-AZ0X-8" target="z1_fMm11V1FeOPK-AZ0X-16" edge="1">
          <mxGeometry relative="1" as="geometry">
            <mxPoint x="2210" y="495" as="sourcePoint" />
          </mxGeometry>
        </mxCell>
        <mxCell id="z1_fMm11V1FeOPK-AZ0X-15" value="" style="rounded=0;orthogonalLoop=1;jettySize=auto;html=1;endArrow=oval;endFill=0;sketch=0;sourcePerimeterSpacing=0;targetPerimeterSpacing=0;endSize=10;" parent="1" source="z1_fMm11V1FeOPK-AZ0X-5" target="z1_fMm11V1FeOPK-AZ0X-16" edge="1">
          <mxGeometry relative="1" as="geometry">
            <mxPoint x="2170" y="495" as="sourcePoint" />
          </mxGeometry>
        </mxCell>
        <mxCell id="z1_fMm11V1FeOPK-AZ0X-16" value="" style="ellipse;whiteSpace=wrap;html=1;align=center;aspect=fixed;fillColor=none;strokeColor=none;resizable=0;perimeter=centerPerimeter;rotatable=0;allowArrows=0;points=[];outlineConnect=1;" parent="1" vertex="1">
          <mxGeometry x="2352.5" y="525" width="10" height="10" as="geometry" />
        </mxCell>
        <mxCell id="z1_fMm11V1FeOPK-AZ0X-17" value="" style="rounded=0;orthogonalLoop=1;jettySize=auto;html=1;endArrow=halfCircle;endFill=0;endSize=6;strokeWidth=1;sketch=0;" parent="1" source="z1_fMm11V1FeOPK-AZ0X-6" target="z1_fMm11V1FeOPK-AZ0X-19" edge="1">
          <mxGeometry relative="1" as="geometry">
            <mxPoint x="2350" y="545" as="sourcePoint" />
          </mxGeometry>
        </mxCell>
        <mxCell id="z1_fMm11V1FeOPK-AZ0X-18" value="" style="rounded=0;orthogonalLoop=1;jettySize=auto;html=1;endArrow=oval;endFill=0;sketch=0;sourcePerimeterSpacing=0;targetPerimeterSpacing=0;endSize=10;" parent="1" source="z1_fMm11V1FeOPK-AZ0X-9" target="z1_fMm11V1FeOPK-AZ0X-19" edge="1">
          <mxGeometry relative="1" as="geometry">
            <mxPoint x="2310" y="545" as="sourcePoint" />
          </mxGeometry>
        </mxCell>
        <mxCell id="z1_fMm11V1FeOPK-AZ0X-19" value="" style="ellipse;whiteSpace=wrap;html=1;align=center;aspect=fixed;fillColor=none;strokeColor=none;resizable=0;perimeter=centerPerimeter;rotatable=0;allowArrows=0;points=[];outlineConnect=1;" parent="1" vertex="1">
          <mxGeometry x="2470" y="525" width="10" height="10" as="geometry" />
        </mxCell>
        <mxCell id="z1_fMm11V1FeOPK-AZ0X-20" value="" style="endArrow=none;html=1;rounded=0;entryX=0;entryY=0.328;entryDx=0;entryDy=0;entryPerimeter=0;" parent="1" source="z1_fMm11V1FeOPK-AZ0X-4" target="34Jqc-MmwKl0o0-0QdGp-2" edge="1">
          <mxGeometry width="50" height="50" relative="1" as="geometry">
            <mxPoint x="2110" y="380" as="sourcePoint" />
            <mxPoint x="2300" y="225" as="targetPoint" />
          </mxGeometry>
        </mxCell>
        <mxCell id="z1_fMm11V1FeOPK-AZ0X-21" value="" style="endArrow=none;html=1;rounded=0;" parent="1" source="z1_fMm11V1FeOPK-AZ0X-13" edge="1">
          <mxGeometry width="50" height="50" relative="1" as="geometry">
            <mxPoint x="2230" y="290" as="sourcePoint" />
            <mxPoint x="2300" y="295" as="targetPoint" />
          </mxGeometry>
        </mxCell>
        <mxCell id="z1_fMm11V1FeOPK-AZ0X-22" value="" style="endArrow=none;html=1;rounded=0;entryX=0.235;entryY=1;entryDx=0;entryDy=0;entryPerimeter=0;" parent="1" source="z1_fMm11V1FeOPK-AZ0X-5" target="34Jqc-MmwKl0o0-0QdGp-2" edge="1">
          <mxGeometry width="50" height="50" relative="1" as="geometry">
            <mxPoint x="2320" y="400" as="sourcePoint" />
            <mxPoint x="2370" y="350" as="targetPoint" />
          </mxGeometry>
        </mxCell>
        <mxCell id="z1_fMm11V1FeOPK-AZ0X-26" value="" style="endArrow=none;html=1;rounded=0;entryX=0.714;entryY=1;entryDx=0;entryDy=0;entryPerimeter=0;" parent="1" source="z1_fMm11V1FeOPK-AZ0X-6" target="34Jqc-MmwKl0o0-0QdGp-2" edge="1">
          <mxGeometry width="50" height="50" relative="1" as="geometry">
            <mxPoint x="2390" y="450" as="sourcePoint" />
            <mxPoint x="2440" y="400" as="targetPoint" />
          </mxGeometry>
        </mxCell>
        <mxCell id="z1_fMm11V1FeOPK-AZ0X-27" value="" style="endArrow=none;html=1;rounded=0;entryX=0.34;entryY=-0.001;entryDx=0;entryDy=0;entryPerimeter=0;" parent="1" source="z1_fMm11V1FeOPK-AZ0X-8" target="DsdAJ7uAf9FdxlnewxL9-3" edge="1">
          <mxGeometry width="50" height="50" relative="1" as="geometry">
            <mxPoint x="2380" y="620" as="sourcePoint" />
            <mxPoint x="2430" y="570" as="targetPoint" />
          </mxGeometry>
        </mxCell>
        <mxCell id="z1_fMm11V1FeOPK-AZ0X-28" value="" style="endArrow=none;html=1;rounded=0;exitX=0.845;exitY=-0.002;exitDx=0;exitDy=0;exitPerimeter=0;" parent="1" source="DsdAJ7uAf9FdxlnewxL9-3" target="z1_fMm11V1FeOPK-AZ0X-9" edge="1">
          <mxGeometry width="50" height="50" relative="1" as="geometry">
            <mxPoint x="2390" y="660" as="sourcePoint" />
            <mxPoint x="2440" y="610" as="targetPoint" />
          </mxGeometry>
        </mxCell>
        <mxCell id="ejZolf6Mjii7HdnemChL-1" value="Raw data&lt;br&gt;&lt;div&gt;Response&lt;/div&gt;" style="text;html=1;align=center;verticalAlign=middle;resizable=0;points=[];autosize=1;strokeColor=none;fillColor=none;" parent="1" vertex="1">
          <mxGeometry x="2490" y="510" width="80" height="40" as="geometry" />
        </mxCell>
        <mxCell id="vdl4brnIjsmWNSBAkOLK-1" value="Database&lt;div&gt;Request&lt;/div&gt;" style="text;html=1;align=center;verticalAlign=middle;resizable=0;points=[];autosize=1;strokeColor=none;fillColor=none;" parent="1" vertex="1">
          <mxGeometry x="2278.75" y="510" width="70" height="40" as="geometry" />
        </mxCell>
        <mxCell id="7mrkC32W2xkSH8AgxJKg-1" value="&lt;div&gt;&lt;span style=&quot;background-color: transparent; color: light-dark(rgb(0, 0, 0), rgb(255, 255, 255));&quot;&gt;Data&amp;nbsp;&lt;/span&gt;&lt;/div&gt;&lt;div&gt;&lt;span style=&quot;background-color: transparent; color: light-dark(rgb(0, 0, 0), rgb(255, 255, 255));&quot;&gt;Request&lt;/span&gt;&lt;/div&gt;" style="text;html=1;align=center;verticalAlign=middle;resizable=0;points=[];autosize=1;strokeColor=none;fillColor=none;" parent="1" vertex="1">
          <mxGeometry x="2100" y="170" width="70" height="40" as="geometry" />
        </mxCell>
        <mxCell id="7mrkC32W2xkSH8AgxJKg-2" value="Data&amp;nbsp;&lt;div&gt;&lt;span style=&quot;background-color: transparent; color: light-dark(rgb(0, 0, 0), rgb(255, 255, 255));&quot;&gt;Response&lt;/span&gt;&lt;/div&gt;" style="text;html=1;align=center;verticalAlign=middle;resizable=0;points=[];autosize=1;strokeColor=none;fillColor=none;" parent="1" vertex="1">
          <mxGeometry x="2095" y="310" width="80" height="40" as="geometry" />
        </mxCell>
      </root>
    </mxGraphModel>
  </diagram>
</mxfile>
